nColumns=19
nRows=74
DataType=double
version=3
OpenSimVersion=4.1
endheader
time	ground_force_1_vx	ground_force_1_vy	ground_force_1_vz	ground_force_1_px	ground_force_1_py	ground_force_1_pz	ground_force_1_mx	ground_force_1_my	ground_force_1_mz	ground_force_2_vx	ground_force_2_vy	ground_force_2_vz	ground_force_2_px	ground_force_2_py	ground_force_2_pz	ground_force_2_mx	ground_force_2_my	ground_force_2_mz
0	-64.0281	458.812	34.9889	0.121398	0.006	-0.255065	0	1.04933	0	0	0	0	0.689401	0	-0.404817	0	0	0
0.01	-68.5801	479.643	27.98	0.125795	0.006	-0.253784	0	0.587396	0	0	0	0	0.689401	0	-0.404817	0	0	0
0.02	-73.4573	503.679	20.4411	0.131381	0.006	-0.252282	0	0.145911	0	0	0	0	0.689401	0	-0.404817	0	0	0
0.03	-78.5246	530.829	12.6455	0.137266	0.006	-0.250848	0	-0.247779	0	0	0	0	0.689401	0	-0.404817	0	0	0
0.04	-83.6364	561.026	4.871	0.143302	0.006	-0.249535	0	-0.575415	0	0	0	0	0.689401	0	-0.404817	0	0	0
0.05	-88.6594	594.156	-2.64687	0.149355	0.006	-0.248381	0	-0.831265	0	0	0	0	0.689401	0	-0.404817	0	0	0
0.06	-93.4836	629.932	-9.72046	0.155316	0.006	-0.247405	0	-1.01925	0	0	0	0	0.689401	0	-0.404817	0	0	0
0.07	-98.0006	667.806	-16.1957	0.161102	0.006	-0.246611	0	-1.14773	0	0	0	0	0.689401	0	-0.404817	0	0	0
0.08	-102.087	706.949	-21.9553	0.166661	0.006	-0.245988	0	-1.22704	0	0	0	0	0.689401	0	-0.404817	0	0	0
0.09	-105.606	746.311	-26.9427	0.171969	0.006	-0.245516	0	-1.26951	0	0	0	0	0.689401	0	-0.404817	0	0	0
0.1	-108.435	784.714	-31.1677	0.177028	0.006	-0.245164	0	-1.28766	0	0	0	0	0.689401	0	-0.404817	0	0	0
0.11	-110.478	820.96	-34.6874	0.181858	0.006	-0.244902	0	-1.29176	0	0	0	0	0.689401	0	-0.404817	0	0	0
0.12	-111.678	853.95	-37.5862	0.186497	0.006	-0.2447	0	-1.28962	0	0	0	0	0.689401	0	-0.404817	0	0	0
0.13	-112.027	882.79	-39.9551	0.19099	0.006	-0.244535	0	-1.28684	0	0	0	0	0.689401	0	-0.404817	0	0	0
0.14	-111.55	906.842	-41.8701	0.195387	0.006	-0.244385	0	-1.28699	0	0	0	0	0.689401	0	-0.404817	0	0	0
0.15	-110.302	925.727	-43.3847	0.199735	0.006	-0.244236	0	-1.29195	0	0	0	0	0.689401	0	-0.404817	0	0	0
0.16	-108.359	939.294	-44.5319	0.20408	0.006	-0.244079	0	-1.30204	0	0	0	0	0.689401	0	-0.404817	0	0	0
0.17	-105.809	947.581	-45.3278	0.208464	0.006	-0.243905	0	-1.31624	0	0	0	0	0.689401	0	-0.404817	0	0	0
0.18	-102.749	950.781	-45.7776	0.21292	0.006	-0.243711	0	-1.33267	0	0	0	0	0.689401	0	-0.404817	0	0	0
0.19	-99.28	949.23	-45.8849	0.217477	0.006	-0.243497	0	-1.3493	0	0	0	0	0.689401	0	-0.404817	0	0	0
0.2	-95.5026	943.388	-45.6598	0.222157	0.006	-0.24326	0	-1.36439	0	0	0	0	0.689401	0	-0.404817	0	0	0
0.21	-91.5175	933.82	-45.1249	0.226974	0.006	-0.243002	0	-1.37667	0	0	0	0	0.689401	0	-0.404817	0	0	0
0.22	-87.4208	921.184	-44.314	0.231936	0.006	-0.242722	0	-1.38563	0	0	0	0	0.689401	0	-0.404817	0	0	0
0.23	-83.2957	906.201	-43.2662	0.237039	0.006	-0.242421	0	-1.39181	0	0	0	0	0.689401	0	-0.404817	0	0	0
0.24	-79.2083	889.628	-42.0197	0.242263	0.006	-0.242099	0	-1.39671	0	0	0	0	0.689401	0	-0.404817	0	0	0
0.25	-75.2055	872.223	-40.6109	0.247577	0.006	-0.241758	0	-1.40265	0	0	0	0	0.689401	0	-0.404817	0	0	0
0.26	-71.3132	854.706	-39.0759	0.252932	0.006	-0.241399	0	-1.41214	0	0	0	0	0.689401	0	-0.404817	0	0	0
0.27	-67.5392	837.719	-37.4526	0.25827	0.006	-0.241024	0	-1.42715	0	0	0	0	0.689401	0	-0.404817	0	0	0
0.28	-63.8778	821.798	-35.7805	0.263522	0.006	-0.240634	0	-1.44878	0	0	0	0	0.689401	0	-0.404817	0	0	0
0.29	-60.3125	807.362	-34.0979	0.26862	0.006	-0.240228	0	-1.4772	0	0	0	0	0.689401	0	-0.404817	0	0	0
0.3	-56.8172	794.717	-32.4402	0.273494	0.006	-0.239804	0	-1.51152	0	0	0	0	0.689401	0	-0.404817	0	0	0
0.31	-53.3597	784.062	-30.8394	0.278081	0.006	-0.239358	0	-1.54972	0	0	0	0	0.689401	0	-0.404817	0	0	0
0.32	-49.903	775.508	-29.3258	0.282329	0.006	-0.238886	0	-1.58877	0	0	0	0	0.689401	0	-0.404817	0	0	0
0.33	-46.4081	769.088	-27.9308	0.286196	0.006	-0.238379	0	-1.62468	0	0	0	0	0.689401	0	-0.404817	0	0	0
0.34	-42.8347	764.777	-26.6889	0.289654	0.006	-0.237827	0	-1.65255	0	0	0	0	0.689401	0	-0.404817	0	0	0
0.35	-39.1419	762.502	-25.6375	0.292687	0.006	-0.23722	0	-1.667	0	0	0	0	0.689401	0	-0.404817	0	0	0
0.36	-35.2885	762.162	-24.8153	0.295295	0.006	-0.236543	0	-1.66258	0	0	0	0	0.689401	0	-0.404817	0	0	0
0.37	-31.2332	763.645	-24.262	0.297485	0.006	-0.235784	0	-1.63396	0	0	0	0	0.689401	0	-0.404817	0	0	0
0.38	-26.9363	766.838	-24.0174	0.299278	0.006	-0.23493	0	-1.57607	0	0	0	0	0.689401	0	-0.404817	0	0	0
0.39	-22.3605	771.648	-24.1208	0.300702	0.006	-0.233968	0	-1.48469	0	0	0	0	0.689401	0	-0.404817	0	0	0
0.4	-17.4719	778.001	-24.6098	0.30179	0.006	-0.232892	0	-1.35681	0	0	0	0	0.689401	0	-0.404817	0	0	0
0.41	-12.241	785.853	-25.5192	0.302582	0.006	-0.2317	0	-1.19098	0	0	0	0	0.689401	0	-0.404817	0	0	0
0.42	-6.64377	795.178	-26.8789	0.303122	0.006	-0.2304	0	-0.987707	0	0	0	0	0.689401	0	-0.404817	0	0	0
0.43	-0.664659	805.965	-28.7128	0.303454	0.006	-0.229008	0	-0.749646	0	0	0	0	0.689401	0	-0.404817	0	0	0
0.44	5.70162	818.202	-31.0341	0.303626	0.006	-0.227553	0	-0.481862	0	0	0	0	0.689401	0	-0.404817	0	0	0
0.45	12.45	831.855	-33.839	0.303687	0.006	-0.226068	0	-0.192005	0	0	0	0	0.689401	0	-0.404817	0	0	0
0.46	19.5665	846.841	-37.0992	0.303685	0.006	-0.224592	0	0.109698	0	0	0	0	0.689401	0	-0.404817	0	0	0
0.47	27.0308	863.013	-40.7604	0.303663	0.006	-0.223165	0	0.411103	0	0	0	0	0.689401	0	-0.404817	0	0	0
0.48	34.8185	880.153	-44.7461	0.30366	0.006	-0.22182	0	0.699248	0	0	0	0	0.689401	0	-0.404817	0	0	0
0.49	42.9025	897.966	-48.9616	0.303707	0.006	-0.220586	0	0.961535	0	0	0	0	0.689401	0	-0.404817	0	0	0
0.5	51.2524	916.087	-53.2994	0.303825	0.006	-0.219483	0	1.18694	0	0	0	0	0.689401	0	-0.404817	0	0	0
0.51	59.8324	934.088	-57.647	0.30403	0.006	-0.218521	0	1.36709	0	0	0	0	0.689401	0	-0.404817	0	0	0
0.52	68.5985	951.488	-61.8949	0.304332	0.006	-0.217705	0	1.49685	0	0	0	0	0.689401	0	-0.404817	0	0	0
0.53	77.4948	967.763	-65.9401	0.304735	0.006	-0.217035	0	1.57444	0	0	0	0	0.689401	0	-0.404817	0	0	0
0.54	86.453	982.349	-69.685	0.305242	0.006	-0.216507	0	1.60094	0	0	0	0	0.689401	0	-0.404817	0	0	0
0.55	95.3915	994.658	-73.0374	0.305853	0.006	-0.216115	0	1.57978	0	0	0	0	0.689401	0	-0.404817	0	0	0
0.56	104.214	1004.09	-75.9068	0.306565	0.006	-0.215853	0	1.51595	0	0	0	0	0.689401	0	-0.404817	0	0	0
0.57	112.806	1010.04	-78.2026	0.307376	0.006	-0.215712	0	1.41503	0	0	0	0	0.689401	0	-0.404817	0	0	0
0.58	121.04	1011.92	-79.8345	0.308282	0.006	-0.215683	0	1.28256	0	0.867134	29.8927	-8.67478	0.715328	0.006	-0.414985	0	0.037079	0
0.59	128.768	1009.19	-80.7169	0.309279	0.006	-0.215755	0	1.12374	0	-0.99688	49.6485	-9.38358	0.74799	0.006	-0.427407	0	0.185357	0
0.6	135.827	1001.33	-80.7731	0.310362	0.006	-0.215919	0	0.943027	0	-3.69741	73.9333	-9.82259	0.766101	0.006	-0.433908	0	0.256161	0
0.61	142.034	987.88	-79.9434	0.311529	0.006	-0.216164	0	0.744284	0	-7.38907	102.849	-9.84447	0.778077	0.006	-0.437915	0	0.29752	0
0.62	147.195	968.469	-78.1931	0.31278	0.006	-0.21648	0	0.531236	0	-12.2122	136.224	-9.27677	0.786987	0.006	-0.440677	0	0.328413	0
0.63	151.111	942.818	-75.5201	0.314115	0.006	-0.216856	0	0.307939	0	-18.2278	173.602	-7.92836	0.79423	0.006	-0.442766	0	0.359997	0
0.64	153.589	910.79	-71.9598	0.315538	0.006	-0.217282	0	0.079012	0	-25.3415	214.302	-5.61373	0.800539	0.006	-0.444485	0	0.400821	0
0.65	154.457	872.418	-67.5889	0.317052	0.006	-0.217747	0	-0.150209	0	-33.2944	257.555	-2.19405	0.806326	0.006	-0.446	0	0.455768	0
0.66	153.58	827.941	-62.5254	0.318663	0.006	-0.218238	0	-0.373555	0	-41.7455	302.565	2.38869	0.811835	0.006	-0.447394	0	0.523512	0
0.67	150.87	777.82	-56.9247	0.32038	0.006	-0.218746	0	-0.584042	0	-50.3718	348.534	8.08749	0.817215	0.006	-0.448703	0	0.594766	0
0.68	146.304	722.745	-50.9689	0.322213	0.006	-0.219257	0	-0.774312	0	-58.9232	394.727	14.7392	0.82256	0.006	-0.449935	0	0.652187	0
0.69	139.931	663.621	-44.8532	0.324175	0.006	-0.219761	0	-0.937422	0	-67.2196	440.574	22.0675	0.827926	0.006	-0.451081	0	0.672957	0
0.7	131.873	601.54	-38.7712	0.326282	0.006	-0.220249	0	-1.06755	0	-75.1239	485.683	29.7092	0.833338	0.006	-0.45212	0	0.634737	0
0.71	122.332	537.741	-32.9011	0.328556	0.006	-0.220713	0	-1.16049	0	-82.5227	529.778	37.2668	0.838799	0.006	-0.453026	0	0.522847	0
0.72	111.578	473.547	-27.3944	0.331024	0.006	-0.221147	0	-1.21404	0	-89.3266	572.642	44.3724	0.844303	0.006	-0.453781	0	0.334763	0
0.73	99.9401	410.293	-22.3664	0.333721	0.006	-0.221549	0	-1.22818	0	-95.4823	614.096	50.7412	0.849841	0.006	-0.454378	0	0.079602	0
